%TF.GenerationSoftware,KiCad,Pcbnew,(5.1.6)-1*%
%TF.CreationDate,2020-07-15T03:05:11-04:00*%
%TF.ProjectId,Arduino Rev 2,41726475-696e-46f2-9052-657620322e6b,rev?*%
%TF.SameCoordinates,Original*%
%TF.FileFunction,Soldermask,Bot*%
%TF.FilePolarity,Negative*%
%FSLAX46Y46*%
G04 Gerber Fmt 4.6, Leading zero omitted, Abs format (unit mm)*
G04 Created by KiCad (PCBNEW (5.1.6)-1) date 2020-07-15 03:05:11*
%MOMM*%
%LPD*%
G01*
G04 APERTURE LIST*
%ADD10O,1.800000X1.800000*%
%ADD11R,1.800000X1.800000*%
%ADD12O,1.400000X3.250000*%
%ADD13R,2.100000X1.500000*%
G04 APERTURE END LIST*
D10*
%TO.C,J602*%
X145250000Y-133730000D03*
X145250000Y-131190000D03*
X145250000Y-128650000D03*
X145250000Y-126110000D03*
X145250000Y-123570000D03*
X145250000Y-121030000D03*
X145250000Y-118490000D03*
X145250000Y-115950000D03*
X145250000Y-113410000D03*
X145250000Y-110870000D03*
X145250000Y-108330000D03*
X145250000Y-105790000D03*
D11*
X145250000Y-103250000D03*
%TD*%
D10*
%TO.C,J601*%
X176250000Y-133790000D03*
X176250000Y-131250000D03*
X176250000Y-128710000D03*
X176250000Y-126170000D03*
X176250000Y-123630000D03*
X176250000Y-121090000D03*
X176250000Y-118550000D03*
X176250000Y-116010000D03*
X176250000Y-113470000D03*
X176250000Y-110930000D03*
X176250000Y-108390000D03*
X176250000Y-105850000D03*
D11*
X176250000Y-103310000D03*
%TD*%
%TO.C,C204*%
G36*
G01*
X163545000Y-103752500D02*
X163545000Y-103227500D01*
G75*
G02*
X163807500Y-102965000I262500J0D01*
G01*
X164432500Y-102965000D01*
G75*
G02*
X164695000Y-103227500I0J-262500D01*
G01*
X164695000Y-103752500D01*
G75*
G02*
X164432500Y-104015000I-262500J0D01*
G01*
X163807500Y-104015000D01*
G75*
G02*
X163545000Y-103752500I0J262500D01*
G01*
G37*
G36*
G01*
X161795000Y-103752500D02*
X161795000Y-103227500D01*
G75*
G02*
X162057500Y-102965000I262500J0D01*
G01*
X162682500Y-102965000D01*
G75*
G02*
X162945000Y-103227500I0J-262500D01*
G01*
X162945000Y-103752500D01*
G75*
G02*
X162682500Y-104015000I-262500J0D01*
G01*
X162057500Y-104015000D01*
G75*
G02*
X161795000Y-103752500I0J262500D01*
G01*
G37*
%TD*%
%TO.C,C203*%
G36*
G01*
X163145000Y-104898809D02*
X163145000Y-105501191D01*
G75*
G02*
X162871191Y-105775000I-273809J0D01*
G01*
X162068809Y-105775000D01*
G75*
G02*
X161795000Y-105501191I0J273809D01*
G01*
X161795000Y-104898809D01*
G75*
G02*
X162068809Y-104625000I273809J0D01*
G01*
X162871191Y-104625000D01*
G75*
G02*
X163145000Y-104898809I0J-273809D01*
G01*
G37*
G36*
G01*
X164745000Y-104898809D02*
X164745000Y-105501191D01*
G75*
G02*
X164471191Y-105775000I-273809J0D01*
G01*
X163668809Y-105775000D01*
G75*
G02*
X163395000Y-105501191I0J273809D01*
G01*
X163395000Y-104898809D01*
G75*
G02*
X163668809Y-104625000I273809J0D01*
G01*
X164471191Y-104625000D01*
G75*
G02*
X164745000Y-104898809I0J-273809D01*
G01*
G37*
%TD*%
D12*
%TO.C,J401*%
X165325000Y-132845000D03*
D13*
X166025000Y-130295000D03*
X159175000Y-130295000D03*
D12*
X159875000Y-132845000D03*
%TD*%
%TO.C,C407*%
G36*
G01*
X159062500Y-115315000D02*
X158537500Y-115315000D01*
G75*
G02*
X158275000Y-115052500I0J262500D01*
G01*
X158275000Y-114427500D01*
G75*
G02*
X158537500Y-114165000I262500J0D01*
G01*
X159062500Y-114165000D01*
G75*
G02*
X159325000Y-114427500I0J-262500D01*
G01*
X159325000Y-115052500D01*
G75*
G02*
X159062500Y-115315000I-262500J0D01*
G01*
G37*
G36*
G01*
X159062500Y-117065000D02*
X158537500Y-117065000D01*
G75*
G02*
X158275000Y-116802500I0J262500D01*
G01*
X158275000Y-116177500D01*
G75*
G02*
X158537500Y-115915000I262500J0D01*
G01*
X159062500Y-115915000D01*
G75*
G02*
X159325000Y-116177500I0J-262500D01*
G01*
X159325000Y-116802500D01*
G75*
G02*
X159062500Y-117065000I-262500J0D01*
G01*
G37*
%TD*%
M02*
