M48
; DRILL file {KiCad (5.1.6)-1} date 07/15/20 03:05:49
; FORMAT={-:-/ absolute / inch / decimal}
; #@! TF.CreationDate,2020-07-15T03:05:49-04:00
; #@! TF.GenerationSoftware,Kicad,Pcbnew,(5.1.6)-1
FMAT,2
INCH
T1C0.0157
T2C0.0276
T3C0.0394
%
G90
G05
T1
X5.813Y-4.2224
X5.939Y-4.3602
X5.998Y-4.1535
X6.0236Y-4.4124
X6.063Y-4.4134
X6.0866Y-4.6654
X6.0925Y-4.2539
X6.0984Y-5.0709
X6.1024Y-4.7717
X6.1063Y-4.9705
X6.1071Y-4.8713
X6.1555Y-4.3169
X6.1644Y-4.1801
X6.1673Y-4.0807
X6.1685Y-4.3597
X6.1929Y-4.3906
X6.1948Y-4.4301
X6.1988Y-4.5512
X6.2067Y-4.8976
X6.2169Y-4.4626
X6.2421Y-4.7559
X6.2756Y-4.0472
X6.2913Y-4.187
X6.2992Y-4.5886
X6.3051Y-4.5118
X6.3268Y-4.748
X6.3476Y-4.5957
X6.3738Y-4.7208
X6.4152Y-4.7208
X6.4314Y-4.3747
X6.4429Y-4.0138
X6.4468Y-4.1994
X6.4643Y-4.5098
X6.4705Y-4.2333
X6.5Y-4.1201
X6.502Y-4.0768
X6.5056Y-4.5098
X6.5177Y-4.3445
X6.5669Y-4.2746
X6.6014Y-3.9616
X6.6024Y-4.8425
X6.6024Y-4.2945
X6.6057Y-4.1257
X6.6752Y-5.0217
X6.7199Y-4.3441
X6.7441Y-4.122
X6.7461Y-4.0
X6.7503Y-4.3745
X6.7781Y-4.4023
X6.8111Y-4.4238
X6.8504Y-4.4262
X6.8898Y-4.4262
T3
X6.939Y-4.0673
X6.939Y-4.1673
X6.939Y-4.2673
X6.939Y-4.3673
X6.939Y-4.4673
X6.939Y-4.5673
X6.939Y-4.6673
X6.939Y-4.7673
X6.939Y-4.8673
X6.939Y-4.9673
X6.939Y-5.0673
X6.939Y-5.1673
X6.939Y-5.2673
X5.7185Y-4.065
X5.7185Y-4.165
X5.7185Y-4.265
X5.7185Y-4.365
X5.7185Y-4.465
X5.7185Y-4.565
X5.7185Y-4.665
X5.7185Y-4.765
X5.7185Y-4.865
X5.7185Y-4.965
X5.7185Y-5.065
X5.7185Y-5.165
X5.7185Y-5.265
T2
G00X6.2874Y-5.1228
M15
G01X6.2874Y-5.1366
M16
G05
G00X6.2943Y-5.2392
M15
G01X6.2943Y-5.2589
M16
G05
G00X6.5089Y-5.2392
M15
G01X6.5089Y-5.2589
M16
G05
G00X6.5157Y-5.1228
M15
G01X6.5157Y-5.1366
M16
G05
T0
M30
