%TF.GenerationSoftware,KiCad,Pcbnew,(5.1.6)-1*%
%TF.CreationDate,2020-07-15T15:52:09-04:00*%
%TF.ProjectId,Arduino Rev 2,41726475-696e-46f2-9052-657620322e6b,rev?*%
%TF.SameCoordinates,Original*%
%TF.FileFunction,Paste,Bot*%
%TF.FilePolarity,Positive*%
%FSLAX46Y46*%
G04 Gerber Fmt 4.6, Leading zero omitted, Abs format (unit mm)*
G04 Created by KiCad (PCBNEW (5.1.6)-1) date 2020-07-15 15:52:09*
%MOMM*%
%LPD*%
G01*
G04 APERTURE LIST*
G04 APERTURE END LIST*
%TO.C,C204*%
G36*
G01*
X163595000Y-103727500D02*
X163595000Y-103252500D01*
G75*
G02*
X163832500Y-103015000I237500J0D01*
G01*
X164407500Y-103015000D01*
G75*
G02*
X164645000Y-103252500I0J-237500D01*
G01*
X164645000Y-103727500D01*
G75*
G02*
X164407500Y-103965000I-237500J0D01*
G01*
X163832500Y-103965000D01*
G75*
G02*
X163595000Y-103727500I0J237500D01*
G01*
G37*
G36*
G01*
X161845000Y-103727500D02*
X161845000Y-103252500D01*
G75*
G02*
X162082500Y-103015000I237500J0D01*
G01*
X162657500Y-103015000D01*
G75*
G02*
X162895000Y-103252500I0J-237500D01*
G01*
X162895000Y-103727500D01*
G75*
G02*
X162657500Y-103965000I-237500J0D01*
G01*
X162082500Y-103965000D01*
G75*
G02*
X161845000Y-103727500I0J237500D01*
G01*
G37*
%TD*%
%TO.C,C203*%
G36*
G01*
X163095000Y-104924999D02*
X163095000Y-105475001D01*
G75*
G02*
X162845001Y-105725000I-249999J0D01*
G01*
X162094999Y-105725000D01*
G75*
G02*
X161845000Y-105475001I0J249999D01*
G01*
X161845000Y-104924999D01*
G75*
G02*
X162094999Y-104675000I249999J0D01*
G01*
X162845001Y-104675000D01*
G75*
G02*
X163095000Y-104924999I0J-249999D01*
G01*
G37*
G36*
G01*
X164695000Y-104924999D02*
X164695000Y-105475001D01*
G75*
G02*
X164445001Y-105725000I-249999J0D01*
G01*
X163694999Y-105725000D01*
G75*
G02*
X163445000Y-105475001I0J249999D01*
G01*
X163445000Y-104924999D01*
G75*
G02*
X163694999Y-104675000I249999J0D01*
G01*
X164445001Y-104675000D01*
G75*
G02*
X164695000Y-104924999I0J-249999D01*
G01*
G37*
%TD*%
%TO.C,C407*%
G36*
G01*
X159037500Y-115265000D02*
X158562500Y-115265000D01*
G75*
G02*
X158325000Y-115027500I0J237500D01*
G01*
X158325000Y-114452500D01*
G75*
G02*
X158562500Y-114215000I237500J0D01*
G01*
X159037500Y-114215000D01*
G75*
G02*
X159275000Y-114452500I0J-237500D01*
G01*
X159275000Y-115027500D01*
G75*
G02*
X159037500Y-115265000I-237500J0D01*
G01*
G37*
G36*
G01*
X159037500Y-117015000D02*
X158562500Y-117015000D01*
G75*
G02*
X158325000Y-116777500I0J237500D01*
G01*
X158325000Y-116202500D01*
G75*
G02*
X158562500Y-115965000I237500J0D01*
G01*
X159037500Y-115965000D01*
G75*
G02*
X159275000Y-116202500I0J-237500D01*
G01*
X159275000Y-116777500D01*
G75*
G02*
X159037500Y-117015000I-237500J0D01*
G01*
G37*
%TD*%
M02*
