%TF.GenerationSoftware,KiCad,Pcbnew,(5.1.6)-1*%
%TF.CreationDate,2020-07-15T03:05:11-04:00*%
%TF.ProjectId,Arduino Rev 2,41726475-696e-46f2-9052-657620322e6b,rev?*%
%TF.SameCoordinates,Original*%
%TF.FileFunction,Paste,Top*%
%TF.FilePolarity,Positive*%
%FSLAX46Y46*%
G04 Gerber Fmt 4.6, Leading zero omitted, Abs format (unit mm)*
G04 Created by KiCad (PCBNEW (5.1.6)-1) date 2020-07-15 03:05:11*
%MOMM*%
%LPD*%
G01*
G04 APERTURE LIST*
%ADD10R,1.250000X1.600000*%
%ADD11R,0.450000X1.250000*%
%ADD12R,0.550000X1.500000*%
%ADD13R,1.500000X0.550000*%
%ADD14R,1.000000X1.400000*%
%ADD15R,1.425000X2.500000*%
%ADD16R,1.825000X0.700000*%
%ADD17R,0.400000X1.750000*%
%ADD18R,1.250000X1.100000*%
G04 APERTURE END LIST*
%TO.C,C406*%
G36*
G01*
X156262500Y-115975000D02*
X156737500Y-115975000D01*
G75*
G02*
X156975000Y-116212500I0J-237500D01*
G01*
X156975000Y-116787500D01*
G75*
G02*
X156737500Y-117025000I-237500J0D01*
G01*
X156262500Y-117025000D01*
G75*
G02*
X156025000Y-116787500I0J237500D01*
G01*
X156025000Y-116212500D01*
G75*
G02*
X156262500Y-115975000I237500J0D01*
G01*
G37*
G36*
G01*
X156262500Y-114225000D02*
X156737500Y-114225000D01*
G75*
G02*
X156975000Y-114462500I0J-237500D01*
G01*
X156975000Y-115037500D01*
G75*
G02*
X156737500Y-115275000I-237500J0D01*
G01*
X156262500Y-115275000D01*
G75*
G02*
X156025000Y-115037500I0J237500D01*
G01*
X156025000Y-114462500D01*
G75*
G02*
X156262500Y-114225000I237500J0D01*
G01*
G37*
%TD*%
%TO.C,C202*%
G36*
G01*
X154275000Y-104162500D02*
X154275000Y-104637500D01*
G75*
G02*
X154037500Y-104875000I-237500J0D01*
G01*
X153462500Y-104875000D01*
G75*
G02*
X153225000Y-104637500I0J237500D01*
G01*
X153225000Y-104162500D01*
G75*
G02*
X153462500Y-103925000I237500J0D01*
G01*
X154037500Y-103925000D01*
G75*
G02*
X154275000Y-104162500I0J-237500D01*
G01*
G37*
G36*
G01*
X156025000Y-104162500D02*
X156025000Y-104637500D01*
G75*
G02*
X155787500Y-104875000I-237500J0D01*
G01*
X155212500Y-104875000D01*
G75*
G02*
X154975000Y-104637500I0J237500D01*
G01*
X154975000Y-104162500D01*
G75*
G02*
X155212500Y-103925000I237500J0D01*
G01*
X155787500Y-103925000D01*
G75*
G02*
X156025000Y-104162500I0J-237500D01*
G01*
G37*
%TD*%
%TO.C,C201*%
G36*
G01*
X154975000Y-103037500D02*
X154975000Y-102562500D01*
G75*
G02*
X155212500Y-102325000I237500J0D01*
G01*
X155787500Y-102325000D01*
G75*
G02*
X156025000Y-102562500I0J-237500D01*
G01*
X156025000Y-103037500D01*
G75*
G02*
X155787500Y-103275000I-237500J0D01*
G01*
X155212500Y-103275000D01*
G75*
G02*
X154975000Y-103037500I0J237500D01*
G01*
G37*
G36*
G01*
X153225000Y-103037500D02*
X153225000Y-102562500D01*
G75*
G02*
X153462500Y-102325000I237500J0D01*
G01*
X154037500Y-102325000D01*
G75*
G02*
X154275000Y-102562500I0J-237500D01*
G01*
X154275000Y-103037500D01*
G75*
G02*
X154037500Y-103275000I-237500J0D01*
G01*
X153462500Y-103275000D01*
G75*
G02*
X153225000Y-103037500I0J237500D01*
G01*
G37*
%TD*%
D10*
%TO.C,Y301*%
X169080000Y-106590000D03*
X169080000Y-102890000D03*
X171280000Y-102890000D03*
X171280000Y-106590000D03*
%TD*%
D11*
%TO.C,U401*%
X159320000Y-112800000D03*
X159955000Y-112800000D03*
X160590000Y-112800000D03*
X161225000Y-112800000D03*
X165035000Y-112800000D03*
X164400000Y-112800000D03*
X163765000Y-112800000D03*
X163130000Y-112800000D03*
X162495000Y-112800000D03*
X161860000Y-112800000D03*
X165035000Y-118159400D03*
X164400000Y-118159400D03*
X163765000Y-118159400D03*
X163130000Y-118159400D03*
X159320000Y-118159400D03*
X159955000Y-118159400D03*
X160590000Y-118159400D03*
X161225000Y-118159400D03*
X161860000Y-118159400D03*
X162495000Y-118159400D03*
%TD*%
D12*
%TO.C,U201*%
X165050000Y-109000000D03*
X164250000Y-109000000D03*
X163450000Y-109000000D03*
X162650000Y-109000000D03*
X161850000Y-109000000D03*
X161050000Y-109000000D03*
X160250000Y-109000000D03*
X159450000Y-109000000D03*
D13*
X158050000Y-107600000D03*
X158050000Y-106800000D03*
X158050000Y-106000000D03*
X158050000Y-105200000D03*
X158050000Y-104400000D03*
X158050000Y-103600000D03*
X158050000Y-102800000D03*
X158050000Y-102000000D03*
D12*
X159450000Y-100600000D03*
X160250000Y-100600000D03*
X161050000Y-100600000D03*
X161850000Y-100600000D03*
X162650000Y-100600000D03*
X163450000Y-100600000D03*
X164250000Y-100600000D03*
D13*
X166450000Y-102000000D03*
X166450000Y-102800000D03*
X166450000Y-103600000D03*
X166450000Y-104400000D03*
X166450000Y-105200000D03*
X166450000Y-106000000D03*
X166450000Y-106800000D03*
X166450000Y-107600000D03*
D12*
X165050000Y-100600000D03*
%TD*%
D14*
%TO.C,S501*%
X155500000Y-111000000D03*
X148500000Y-111000000D03*
%TD*%
%TO.C,R501*%
G36*
G01*
X154975000Y-107487500D02*
X154975000Y-107012500D01*
G75*
G02*
X155212500Y-106775000I237500J0D01*
G01*
X155787500Y-106775000D01*
G75*
G02*
X156025000Y-107012500I0J-237500D01*
G01*
X156025000Y-107487500D01*
G75*
G02*
X155787500Y-107725000I-237500J0D01*
G01*
X155212500Y-107725000D01*
G75*
G02*
X154975000Y-107487500I0J237500D01*
G01*
G37*
G36*
G01*
X153225000Y-107487500D02*
X153225000Y-107012500D01*
G75*
G02*
X153462500Y-106775000I237500J0D01*
G01*
X154037500Y-106775000D01*
G75*
G02*
X154275000Y-107012500I0J-237500D01*
G01*
X154275000Y-107487500D01*
G75*
G02*
X154037500Y-107725000I-237500J0D01*
G01*
X153462500Y-107725000D01*
G75*
G02*
X153225000Y-107487500I0J237500D01*
G01*
G37*
%TD*%
%TO.C,R403*%
G36*
G01*
X169775000Y-120012500D02*
X169775000Y-120487500D01*
G75*
G02*
X169537500Y-120725000I-237500J0D01*
G01*
X168962500Y-120725000D01*
G75*
G02*
X168725000Y-120487500I0J237500D01*
G01*
X168725000Y-120012500D01*
G75*
G02*
X168962500Y-119775000I237500J0D01*
G01*
X169537500Y-119775000D01*
G75*
G02*
X169775000Y-120012500I0J-237500D01*
G01*
G37*
G36*
G01*
X171525000Y-120012500D02*
X171525000Y-120487500D01*
G75*
G02*
X171287500Y-120725000I-237500J0D01*
G01*
X170712500Y-120725000D01*
G75*
G02*
X170475000Y-120487500I0J237500D01*
G01*
X170475000Y-120012500D01*
G75*
G02*
X170712500Y-119775000I237500J0D01*
G01*
X171287500Y-119775000D01*
G75*
G02*
X171525000Y-120012500I0J-237500D01*
G01*
G37*
%TD*%
%TO.C,R402*%
G36*
G01*
X160225000Y-125187500D02*
X160225000Y-124712500D01*
G75*
G02*
X160462500Y-124475000I237500J0D01*
G01*
X161037500Y-124475000D01*
G75*
G02*
X161275000Y-124712500I0J-237500D01*
G01*
X161275000Y-125187500D01*
G75*
G02*
X161037500Y-125425000I-237500J0D01*
G01*
X160462500Y-125425000D01*
G75*
G02*
X160225000Y-125187500I0J237500D01*
G01*
G37*
G36*
G01*
X158475000Y-125187500D02*
X158475000Y-124712500D01*
G75*
G02*
X158712500Y-124475000I237500J0D01*
G01*
X159287500Y-124475000D01*
G75*
G02*
X159525000Y-124712500I0J-237500D01*
G01*
X159525000Y-125187500D01*
G75*
G02*
X159287500Y-125425000I-237500J0D01*
G01*
X158712500Y-125425000D01*
G75*
G02*
X158475000Y-125187500I0J237500D01*
G01*
G37*
%TD*%
%TO.C,R401*%
G36*
G01*
X164525000Y-124712500D02*
X164525000Y-125187500D01*
G75*
G02*
X164287500Y-125425000I-237500J0D01*
G01*
X163712500Y-125425000D01*
G75*
G02*
X163475000Y-125187500I0J237500D01*
G01*
X163475000Y-124712500D01*
G75*
G02*
X163712500Y-124475000I237500J0D01*
G01*
X164287500Y-124475000D01*
G75*
G02*
X164525000Y-124712500I0J-237500D01*
G01*
G37*
G36*
G01*
X166275000Y-124712500D02*
X166275000Y-125187500D01*
G75*
G02*
X166037500Y-125425000I-237500J0D01*
G01*
X165462500Y-125425000D01*
G75*
G02*
X165225000Y-125187500I0J237500D01*
G01*
X165225000Y-124712500D01*
G75*
G02*
X165462500Y-124475000I237500J0D01*
G01*
X166037500Y-124475000D01*
G75*
G02*
X166275000Y-124712500I0J-237500D01*
G01*
G37*
%TD*%
%TO.C,R202*%
G36*
G01*
X150562500Y-103675000D02*
X151037500Y-103675000D01*
G75*
G02*
X151275000Y-103912500I0J-237500D01*
G01*
X151275000Y-104487500D01*
G75*
G02*
X151037500Y-104725000I-237500J0D01*
G01*
X150562500Y-104725000D01*
G75*
G02*
X150325000Y-104487500I0J237500D01*
G01*
X150325000Y-103912500D01*
G75*
G02*
X150562500Y-103675000I237500J0D01*
G01*
G37*
G36*
G01*
X150562500Y-101925000D02*
X151037500Y-101925000D01*
G75*
G02*
X151275000Y-102162500I0J-237500D01*
G01*
X151275000Y-102737500D01*
G75*
G02*
X151037500Y-102975000I-237500J0D01*
G01*
X150562500Y-102975000D01*
G75*
G02*
X150325000Y-102737500I0J237500D01*
G01*
X150325000Y-102162500D01*
G75*
G02*
X150562500Y-101925000I237500J0D01*
G01*
G37*
%TD*%
%TO.C,R201*%
G36*
G01*
X155365000Y-122277500D02*
X155365000Y-121802500D01*
G75*
G02*
X155602500Y-121565000I237500J0D01*
G01*
X156177500Y-121565000D01*
G75*
G02*
X156415000Y-121802500I0J-237500D01*
G01*
X156415000Y-122277500D01*
G75*
G02*
X156177500Y-122515000I-237500J0D01*
G01*
X155602500Y-122515000D01*
G75*
G02*
X155365000Y-122277500I0J237500D01*
G01*
G37*
G36*
G01*
X153615000Y-122277500D02*
X153615000Y-121802500D01*
G75*
G02*
X153852500Y-121565000I237500J0D01*
G01*
X154427500Y-121565000D01*
G75*
G02*
X154665000Y-121802500I0J-237500D01*
G01*
X154665000Y-122277500D01*
G75*
G02*
X154427500Y-122515000I-237500J0D01*
G01*
X153852500Y-122515000D01*
G75*
G02*
X153615000Y-122277500I0J237500D01*
G01*
G37*
%TD*%
D15*
%TO.C,J401*%
X161600000Y-133575000D03*
D16*
X165590000Y-131615000D03*
D17*
X163900000Y-130500000D03*
X163250000Y-130500000D03*
X162600000Y-130500000D03*
X161950000Y-130500000D03*
X161300000Y-130500000D03*
D16*
X159610000Y-131615000D03*
D15*
X163600000Y-133575000D03*
%TD*%
%TO.C,FB401*%
G36*
G01*
X156262500Y-126875000D02*
X156737500Y-126875000D01*
G75*
G02*
X156975000Y-127112500I0J-237500D01*
G01*
X156975000Y-127687500D01*
G75*
G02*
X156737500Y-127925000I-237500J0D01*
G01*
X156262500Y-127925000D01*
G75*
G02*
X156025000Y-127687500I0J237500D01*
G01*
X156025000Y-127112500D01*
G75*
G02*
X156262500Y-126875000I237500J0D01*
G01*
G37*
G36*
G01*
X156262500Y-125125000D02*
X156737500Y-125125000D01*
G75*
G02*
X156975000Y-125362500I0J-237500D01*
G01*
X156975000Y-125937500D01*
G75*
G02*
X156737500Y-126175000I-237500J0D01*
G01*
X156262500Y-126175000D01*
G75*
G02*
X156025000Y-125937500I0J237500D01*
G01*
X156025000Y-125362500D01*
G75*
G02*
X156262500Y-125125000I237500J0D01*
G01*
G37*
%TD*%
D18*
%TO.C,D401*%
X169000000Y-123000000D03*
X171350000Y-123000000D03*
%TD*%
%TO.C,D202*%
X151810000Y-107250000D03*
X149460000Y-107250000D03*
%TD*%
%TO.C,D201*%
X156190000Y-120360000D03*
X153840000Y-120360000D03*
%TD*%
%TO.C,C405*%
G36*
G01*
X167762500Y-115975000D02*
X168237500Y-115975000D01*
G75*
G02*
X168475000Y-116212500I0J-237500D01*
G01*
X168475000Y-116787500D01*
G75*
G02*
X168237500Y-117025000I-237500J0D01*
G01*
X167762500Y-117025000D01*
G75*
G02*
X167525000Y-116787500I0J237500D01*
G01*
X167525000Y-116212500D01*
G75*
G02*
X167762500Y-115975000I237500J0D01*
G01*
G37*
G36*
G01*
X167762500Y-114225000D02*
X168237500Y-114225000D01*
G75*
G02*
X168475000Y-114462500I0J-237500D01*
G01*
X168475000Y-115037500D01*
G75*
G02*
X168237500Y-115275000I-237500J0D01*
G01*
X167762500Y-115275000D01*
G75*
G02*
X167525000Y-115037500I0J237500D01*
G01*
X167525000Y-114462500D01*
G75*
G02*
X167762500Y-114225000I237500J0D01*
G01*
G37*
%TD*%
%TO.C,C404*%
G36*
G01*
X170512500Y-115975000D02*
X170987500Y-115975000D01*
G75*
G02*
X171225000Y-116212500I0J-237500D01*
G01*
X171225000Y-116787500D01*
G75*
G02*
X170987500Y-117025000I-237500J0D01*
G01*
X170512500Y-117025000D01*
G75*
G02*
X170275000Y-116787500I0J237500D01*
G01*
X170275000Y-116212500D01*
G75*
G02*
X170512500Y-115975000I237500J0D01*
G01*
G37*
G36*
G01*
X170512500Y-114225000D02*
X170987500Y-114225000D01*
G75*
G02*
X171225000Y-114462500I0J-237500D01*
G01*
X171225000Y-115037500D01*
G75*
G02*
X170987500Y-115275000I-237500J0D01*
G01*
X170512500Y-115275000D01*
G75*
G02*
X170275000Y-115037500I0J237500D01*
G01*
X170275000Y-114462500D01*
G75*
G02*
X170512500Y-114225000I237500J0D01*
G01*
G37*
%TD*%
%TO.C,C403*%
G36*
G01*
X159525000Y-126262500D02*
X159525000Y-126737500D01*
G75*
G02*
X159287500Y-126975000I-237500J0D01*
G01*
X158712500Y-126975000D01*
G75*
G02*
X158475000Y-126737500I0J237500D01*
G01*
X158475000Y-126262500D01*
G75*
G02*
X158712500Y-126025000I237500J0D01*
G01*
X159287500Y-126025000D01*
G75*
G02*
X159525000Y-126262500I0J-237500D01*
G01*
G37*
G36*
G01*
X161275000Y-126262500D02*
X161275000Y-126737500D01*
G75*
G02*
X161037500Y-126975000I-237500J0D01*
G01*
X160462500Y-126975000D01*
G75*
G02*
X160225000Y-126737500I0J237500D01*
G01*
X160225000Y-126262500D01*
G75*
G02*
X160462500Y-126025000I237500J0D01*
G01*
X161037500Y-126025000D01*
G75*
G02*
X161275000Y-126262500I0J-237500D01*
G01*
G37*
%TD*%
%TO.C,C402*%
G36*
G01*
X165225000Y-126737500D02*
X165225000Y-126262500D01*
G75*
G02*
X165462500Y-126025000I237500J0D01*
G01*
X166037500Y-126025000D01*
G75*
G02*
X166275000Y-126262500I0J-237500D01*
G01*
X166275000Y-126737500D01*
G75*
G02*
X166037500Y-126975000I-237500J0D01*
G01*
X165462500Y-126975000D01*
G75*
G02*
X165225000Y-126737500I0J237500D01*
G01*
G37*
G36*
G01*
X163475000Y-126737500D02*
X163475000Y-126262500D01*
G75*
G02*
X163712500Y-126025000I237500J0D01*
G01*
X164287500Y-126025000D01*
G75*
G02*
X164525000Y-126262500I0J-237500D01*
G01*
X164525000Y-126737500D01*
G75*
G02*
X164287500Y-126975000I-237500J0D01*
G01*
X163712500Y-126975000D01*
G75*
G02*
X163475000Y-126737500I0J237500D01*
G01*
G37*
%TD*%
%TO.C,C401*%
G36*
G01*
X153462500Y-126875000D02*
X153937500Y-126875000D01*
G75*
G02*
X154175000Y-127112500I0J-237500D01*
G01*
X154175000Y-127687500D01*
G75*
G02*
X153937500Y-127925000I-237500J0D01*
G01*
X153462500Y-127925000D01*
G75*
G02*
X153225000Y-127687500I0J237500D01*
G01*
X153225000Y-127112500D01*
G75*
G02*
X153462500Y-126875000I237500J0D01*
G01*
G37*
G36*
G01*
X153462500Y-125125000D02*
X153937500Y-125125000D01*
G75*
G02*
X154175000Y-125362500I0J-237500D01*
G01*
X154175000Y-125937500D01*
G75*
G02*
X153937500Y-126175000I-237500J0D01*
G01*
X153462500Y-126175000D01*
G75*
G02*
X153225000Y-125937500I0J237500D01*
G01*
X153225000Y-125362500D01*
G75*
G02*
X153462500Y-125125000I237500J0D01*
G01*
G37*
%TD*%
%TO.C,C302*%
G36*
G01*
X170855000Y-100727500D02*
X170855000Y-100252500D01*
G75*
G02*
X171092500Y-100015000I237500J0D01*
G01*
X171667500Y-100015000D01*
G75*
G02*
X171905000Y-100252500I0J-237500D01*
G01*
X171905000Y-100727500D01*
G75*
G02*
X171667500Y-100965000I-237500J0D01*
G01*
X171092500Y-100965000D01*
G75*
G02*
X170855000Y-100727500I0J237500D01*
G01*
G37*
G36*
G01*
X169105000Y-100727500D02*
X169105000Y-100252500D01*
G75*
G02*
X169342500Y-100015000I237500J0D01*
G01*
X169917500Y-100015000D01*
G75*
G02*
X170155000Y-100252500I0J-237500D01*
G01*
X170155000Y-100727500D01*
G75*
G02*
X169917500Y-100965000I-237500J0D01*
G01*
X169342500Y-100965000D01*
G75*
G02*
X169105000Y-100727500I0J237500D01*
G01*
G37*
%TD*%
%TO.C,C301*%
G36*
G01*
X170155000Y-108752500D02*
X170155000Y-109227500D01*
G75*
G02*
X169917500Y-109465000I-237500J0D01*
G01*
X169342500Y-109465000D01*
G75*
G02*
X169105000Y-109227500I0J237500D01*
G01*
X169105000Y-108752500D01*
G75*
G02*
X169342500Y-108515000I237500J0D01*
G01*
X169917500Y-108515000D01*
G75*
G02*
X170155000Y-108752500I0J-237500D01*
G01*
G37*
G36*
G01*
X171905000Y-108752500D02*
X171905000Y-109227500D01*
G75*
G02*
X171667500Y-109465000I-237500J0D01*
G01*
X171092500Y-109465000D01*
G75*
G02*
X170855000Y-109227500I0J237500D01*
G01*
X170855000Y-108752500D01*
G75*
G02*
X171092500Y-108515000I237500J0D01*
G01*
X171667500Y-108515000D01*
G75*
G02*
X171905000Y-108752500I0J-237500D01*
G01*
G37*
%TD*%
M02*
