M48
; DRILL file {KiCad (6.0.1)} date Wed Apr 13 12:15:11 2022
; FORMAT={-:-/ absolute / inch / decimal}
; #@! TF.CreationDate,2022-04-13T12:15:11-04:00
; #@! TF.GenerationSoftware,Kicad,Pcbnew,(6.0.1)
; #@! TF.FileFunction,MixedPlating,1,2
FMAT,2
INCH
; #@! TA.AperFunction,Plated,PTH,ViaDrill
T1C0.0157
; #@! TA.AperFunction,Plated,PTH,ComponentDrill
T2C0.0315
; #@! TA.AperFunction,Plated,PTH,ComponentDrill
T3C0.0346
; #@! TA.AperFunction,Plated,PTH,ComponentDrill
T4C0.0354
; #@! TA.AperFunction,Plated,PTH,ComponentDrill
T5C0.0390
; #@! TA.AperFunction,Plated,PTH,ComponentDrill
T6C0.0394
; #@! TA.AperFunction,Plated,PTH,ComponentDrill
T7C0.0400
; #@! TA.AperFunction,Plated,PTH,ComponentDrill
T8C0.0440
; #@! TA.AperFunction,Plated,PTH,ComponentDrill
T9C0.0472
; #@! TA.AperFunction,Plated,PTH,ComponentDrill
T10C0.0488
; #@! TA.AperFunction,Plated,PTH,ComponentDrill
T11C0.0709
%
G90
G05
T1
X3.4055Y-5.0984
X3.45Y-4.5
X3.6024Y-4.6063
X3.65Y-4.75
X3.7008Y-4.6063
X3.8386Y-4.7441
X3.8386Y-4.9606
X3.8386Y-5.1181
X4.2126Y-5.0787
X4.5Y-4.75
X4.55Y-4.75
X4.6Y-4.3
X4.65Y-4.3
X4.8228Y-4.6457
X4.8228Y-4.9409
X4.8228Y-5.1181
X5.15Y-4.9
X5.3937Y-5.0591
X5.4921Y-4.1339
X5.8Y-4.3
X5.8268Y-4.7244
X5.8268Y-4.9409
X5.8268Y-5.0984
X5.85Y-4.3
X5.9Y-4.3
X5.95Y-4.3
X6.2008Y-5.1181
X6.5Y-4.25
X6.55Y-4.25
X6.6Y-4.25
X6.65Y-4.25
X6.7218Y-4.5958
X6.7717Y-4.7638
X6.7717Y-4.9213
X6.7717Y-5.1181
X6.9094Y-2.5394
X6.9094Y-2.9528
X6.9685Y-4.3067
X7.0079Y-4.3067
X7.15Y-4.85
X7.1654Y-2.874
X7.2047Y-3.2283
X7.2441Y-3.6417
X7.3622Y-5.0591
X7.3819Y-3.6417
X7.5Y-3.6417
X7.5Y-4.1142
X7.8Y-4.3
X7.8346Y-4.8425
X7.8346Y-4.9606
X7.8346Y-5.1181
X7.85Y-4.3
X7.9Y-4.3
X7.95Y-4.3
X8.0512Y-3.6614
X8.189Y-5.1575
X8.248Y-3.6024
X8.45Y-4.15
X8.5Y-4.15
X8.55Y-4.15
T2
X2.9911Y-5.2516
X2.9911Y-5.4484
X3.1911Y-4.25
X3.5911Y-4.25
X3.8382Y-2.5039
X3.8386Y-2.2008
X3.8386Y-2.2992
X3.8411Y-5.2516
X3.8411Y-5.4484
X4.0089Y-4.25
X4.1382Y-2.5039
X4.2795Y-2.063
X4.3268Y-2.2441
X4.4089Y-4.25
X4.6268Y-2.2441
X4.6795Y-2.063
X4.7911Y-3.95
X4.7911Y-4.35
X4.7913Y-2.252
X4.7913Y-2.352
X4.7913Y-2.452
X4.7913Y-2.552
X4.8425Y-2.0236
X4.9911Y-5.2516
X4.9911Y-5.4484
X5.0394Y-2.0236
X5.0913Y-2.252
X5.0913Y-2.352
X5.0913Y-2.452
X5.0913Y-2.552
X5.1823Y-4.25
X5.2559Y-2.2047
X5.2559Y-2.6047
X5.3209Y-2.7055
X5.3209Y-3.1055
X5.4528Y-2.2047
X5.4528Y-2.6047
X5.5079Y-2.7055
X5.5079Y-3.1055
X5.5823Y-4.25
X5.6671Y-2.1969
X5.6949Y-2.7055
X5.6949Y-3.1055
X5.7459Y-2.1969
X5.7911Y-5.25
X5.7911Y-5.4469
X5.8819Y-2.7055
X5.8819Y-3.1055
X5.9094Y-2.1969
X5.9882Y-2.1969
X6.0Y-4.25
X6.2291Y-2.8465
X6.248Y-2.1181
X6.248Y-2.315
X6.248Y-2.5118
X6.248Y-2.7087
X6.4Y-4.25
X6.4921Y-2.3169
X6.4921Y-2.5091
X6.6291Y-2.8465
X6.7598Y-2.2392
X6.7598Y-2.3392
X6.7598Y-2.4392
X6.7598Y-2.5392
X6.7598Y-2.6392
X6.7598Y-2.7392
X6.7598Y-2.8392
X6.7911Y-3.95
X6.7911Y-4.35
X6.811Y-2.0091
X6.9411Y-5.2516
X6.9411Y-5.4484
X7.0079Y-2.0091
X7.0598Y-2.2392
X7.0598Y-2.3392
X7.0598Y-2.4392
X7.0598Y-2.5392
X7.0598Y-2.6392
X7.0598Y-2.7392
X7.0598Y-2.8392
X7.1486Y-1.9882
X7.1734Y-4.25
X7.3502Y-1.7382
X7.547Y-1.7382
X7.5486Y-1.9882
X7.5734Y-4.25
X7.6512Y-2.4382
X7.6512Y-2.8382
X7.7911Y-5.2516
X7.7911Y-5.4484
X7.8512Y-2.4382
X7.8512Y-2.8382
X7.9911Y-4.25
X8.0512Y-2.4382
X8.0512Y-2.8382
X8.2512Y-2.4382
X8.2512Y-2.8382
X8.3911Y-4.25
T3
X4.1487Y-2.2571
X4.1487Y-2.3071
X4.1487Y-2.3571
T4
X3.1411Y-3.7
X3.1502Y-3.5652
X3.1911Y-3.805
X3.2199Y-3.4592
X3.2739Y-3.8754
X3.3273Y-3.4042
X3.3911Y-3.905
X3.4629Y-3.4054
X3.5133Y-3.8765
X3.5671Y-3.4691
X3.5971Y-3.8064
X3.6309Y-3.5688
X3.6428Y-3.7015
X3.9589Y-3.7
X3.9679Y-3.5652
X4.0089Y-3.805
X4.0377Y-3.4592
X4.0916Y-3.8754
X4.1451Y-3.4042
X4.2089Y-3.905
X4.2806Y-3.4054
X4.3311Y-3.8765
X4.3848Y-3.4691
X4.4149Y-3.8064
X4.4486Y-3.5688
X4.4606Y-3.7015
X4.7454Y-3.65
X4.8454Y-3.65
X5.1323Y-3.7
X5.1413Y-3.5652
X5.1823Y-3.805
X5.2111Y-3.4592
X5.265Y-3.8754
X5.3184Y-3.4042
X5.3823Y-3.905
X5.454Y-3.4054
X5.5045Y-3.8765
X5.5582Y-3.4691
X5.5882Y-3.8064
X5.622Y-3.5688
X5.6339Y-3.7015
X5.95Y-3.7
X5.9591Y-3.5652
X6.0Y-3.805
X6.0288Y-3.4592
X6.0828Y-3.8754
X6.1362Y-3.4042
X6.2Y-3.905
X6.2717Y-3.4054
X6.3222Y-3.8765
X6.3759Y-3.4691
X6.406Y-3.8064
X6.4397Y-3.5688
X6.4517Y-3.7015
X6.7365Y-3.65
X6.8365Y-3.65
X7.1234Y-3.7
X7.1324Y-3.5652
X7.1734Y-3.805
X7.2022Y-3.4592
X7.2561Y-3.8754
X7.3096Y-3.4042
X7.3734Y-3.905
X7.4451Y-3.4054
X7.4956Y-3.8765
X7.5493Y-3.4691
X7.5794Y-3.8064
X7.6131Y-3.5688
X7.6251Y-3.7015
X7.9411Y-3.7
X7.9502Y-3.5652
X7.9911Y-3.805
X8.0199Y-3.4592
X8.0739Y-3.8754
X8.1273Y-3.4042
X8.1911Y-3.905
X8.2629Y-3.4054
X8.3133Y-3.8765
X8.3671Y-3.4691
X8.3971Y-3.8064
X8.4309Y-3.5688
X8.4428Y-3.7015
T5
X6.6536Y-3.0807
X6.6536Y-3.2579
X6.9095Y-3.0807
X6.9095Y-3.2579
T6
X4.6273Y-2.8898
X4.8241Y-2.8898
X7.2795Y-2.253
X7.2795Y-2.353
X7.2795Y-2.453
X7.2795Y-2.553
X7.2795Y-2.653
X7.8528Y-1.7028
X7.8528Y-2.2736
X7.9512Y-2.2736
X8.0496Y-1.7028
X8.0496Y-2.2736
T7
X4.3748Y-2.478
X4.4748Y-2.478
X4.5748Y-2.478
T8
X3.2411Y-4.55
X3.2411Y-4.65
X3.2411Y-4.75
X3.2411Y-4.85
X3.2411Y-4.95
X3.2411Y-5.05
X3.2411Y-5.15
X3.2411Y-5.25
X3.2411Y-5.35
X3.2411Y-5.45
X3.5411Y-4.55
X3.5411Y-4.65
X3.5411Y-4.75
X3.5411Y-4.85
X3.5411Y-4.95
X3.5411Y-5.05
X3.5411Y-5.15
X3.5411Y-5.25
X3.5411Y-5.35
X3.5411Y-5.45
X4.0589Y-4.55
X4.0589Y-4.65
X4.0589Y-4.75
X4.0589Y-4.85
X4.0589Y-4.95
X4.0589Y-5.05
X4.0589Y-5.15
X4.0589Y-5.25
X4.0589Y-5.35
X4.0589Y-5.45
X4.3589Y-4.55
X4.3589Y-4.65
X4.3589Y-4.75
X4.3589Y-4.85
X4.3589Y-4.95
X4.3589Y-5.05
X4.3589Y-5.15
X4.3589Y-5.25
X4.3589Y-5.35
X4.3589Y-5.45
X5.2323Y-4.55
X5.2323Y-4.65
X5.2323Y-4.75
X5.2323Y-4.85
X5.2323Y-4.95
X5.2323Y-5.05
X5.2323Y-5.15
X5.2323Y-5.25
X5.2323Y-5.35
X5.2323Y-5.45
X5.5323Y-4.55
X5.5323Y-4.65
X5.5323Y-4.75
X5.5323Y-4.85
X5.5323Y-4.95
X5.5323Y-5.05
X5.5323Y-5.15
X5.5323Y-5.25
X5.5323Y-5.35
X5.5323Y-5.45
X6.05Y-4.55
X6.05Y-4.65
X6.05Y-4.75
X6.05Y-4.85
X6.05Y-4.95
X6.05Y-5.05
X6.05Y-5.15
X6.05Y-5.25
X6.05Y-5.35
X6.05Y-5.45
X6.35Y-4.55
X6.35Y-4.65
X6.35Y-4.75
X6.35Y-4.85
X6.35Y-4.95
X6.35Y-5.05
X6.35Y-5.15
X6.35Y-5.25
X6.35Y-5.35
X6.35Y-5.45
X7.2234Y-4.55
X7.2234Y-4.65
X7.2234Y-4.75
X7.2234Y-4.85
X7.2234Y-4.95
X7.2234Y-5.05
X7.2234Y-5.15
X7.2234Y-5.25
X7.2234Y-5.35
X7.2234Y-5.45
X7.5234Y-4.55
X7.5234Y-4.65
X7.5234Y-4.75
X7.5234Y-4.85
X7.5234Y-4.95
X7.5234Y-5.05
X7.5234Y-5.15
X7.5234Y-5.25
X7.5234Y-5.35
X7.5234Y-5.45
X8.0411Y-4.55
X8.0411Y-4.65
X8.0411Y-4.75
X8.0411Y-4.85
X8.0411Y-4.95
X8.0411Y-5.05
X8.0411Y-5.15
X8.0411Y-5.25
X8.0411Y-5.35
X8.0411Y-5.45
X8.3411Y-4.55
X8.3411Y-4.65
X8.3411Y-4.75
X8.3411Y-4.85
X8.3411Y-4.95
X8.3411Y-5.05
X8.3411Y-5.15
X8.3411Y-5.25
X8.3411Y-5.35
X8.3411Y-5.45
T9
X3.9961Y-2.8898
X4.3898Y-2.8898
X5.0906Y-2.7451
X5.0906Y-3.0502
X7.4961Y-3.0882
X7.8012Y-3.0882
X8.0986Y-3.0882
X8.4037Y-3.0882
T10
X5.7307Y-2.4094
X5.8307Y-2.4094
X5.9307Y-2.4094
T6
G00X5.2047Y-1.9035
M15
G01X5.2047Y-2.002
M16
G05
G00X5.3406Y-1.8346
M15
G01X5.439Y-1.8346
M16
G05
G00X5.3406Y-2.0709
M15
G01X5.439Y-2.0709
M16
G05
T11
G00X7.7268Y-1.9626
M15
G01X7.7268Y-1.9941
M16
G05
G00X8.1756Y-1.9626
M15
G01X8.1756Y-1.9941
M16
G05
T0
M30
