%TF.GenerationSoftware,KiCad,Pcbnew,(6.0.4)*%
%TF.CreationDate,2022-08-22T18:12:28-05:00*%
%TF.ProjectId,Nixie Clock,4e697869-6520-4436-9c6f-636b2e6b6963,rev?*%
%TF.SameCoordinates,Original*%
%TF.FileFunction,Soldermask,Bot*%
%TF.FilePolarity,Negative*%
%FSLAX46Y46*%
G04 Gerber Fmt 4.6, Leading zero omitted, Abs format (unit mm)*
G04 Created by KiCad (PCBNEW (6.0.4)) date 2022-08-22 18:12:28*
%MOMM*%
%LPD*%
G01*
G04 APERTURE LIST*
%ADD10R,1.676400X1.676400*%
%ADD11C,1.676400*%
%ADD12C,2.400000*%
%ADD13O,2.400000X2.400000*%
%ADD14C,1.600000*%
%ADD15O,1.600000X1.600000*%
%ADD16C,1.408000*%
%ADD17C,1.400000*%
%ADD18O,1.400000X1.400000*%
%ADD19C,1.500000*%
%ADD20R,1.600000X1.600000*%
%ADD21C,2.000000*%
%ADD22R,1.200000X1.200000*%
%ADD23C,1.200000*%
%ADD24R,1.800000X1.800000*%
%ADD25C,1.800000*%
%ADD26R,1.050000X1.500000*%
%ADD27O,1.050000X1.500000*%
%ADD28R,1.860000X1.860000*%
%ADD29C,1.860000*%
%ADD30C,4.300000*%
%ADD31R,1.498000X1.498000*%
%ADD32C,1.498000*%
%ADD33R,2.800000X3.600000*%
%ADD34R,1.905000X2.000000*%
%ADD35O,1.905000X2.000000*%
%ADD36R,4.500000X2.000000*%
%ADD37R,2.000000X4.500000*%
G04 APERTURE END LIST*
D10*
%TO.C,U6*%
X158750000Y-123840000D03*
D11*
X158750000Y-126380000D03*
X158750000Y-128920000D03*
X158750000Y-131460000D03*
X158750000Y-134000000D03*
X158750000Y-136540000D03*
X158750000Y-139080000D03*
X158750000Y-141620000D03*
X158750000Y-144160000D03*
X158750000Y-146700000D03*
X166370000Y-146700000D03*
X166370000Y-144160000D03*
X166370000Y-141620000D03*
X166370000Y-139080000D03*
X166370000Y-136540000D03*
X166370000Y-134000000D03*
X166370000Y-131460000D03*
X166370000Y-128920000D03*
X166370000Y-126380000D03*
X166370000Y-123840000D03*
%TD*%
D12*
%TO.C,R25*%
X104620000Y-94000000D03*
D13*
X89380000Y-94000000D03*
%TD*%
D14*
%TO.C,R24*%
X81000000Y-128000000D03*
D15*
X81000000Y-138160000D03*
%TD*%
D10*
%TO.C,U5*%
X186382643Y-123840000D03*
D11*
X186382643Y-126380000D03*
X186382643Y-128920000D03*
X186382643Y-131460000D03*
X186382643Y-134000000D03*
X186382643Y-136540000D03*
X186382643Y-139080000D03*
X186382643Y-141620000D03*
X186382643Y-144160000D03*
X186382643Y-146700000D03*
X194002643Y-146700000D03*
X194002643Y-144160000D03*
X194002643Y-141620000D03*
X194002643Y-139080000D03*
X194002643Y-136540000D03*
X194002643Y-134000000D03*
X194002643Y-131460000D03*
X194002643Y-128920000D03*
X194002643Y-126380000D03*
X194002643Y-123840000D03*
%TD*%
D16*
%TO.C,TBE3*%
X190457921Y-100793000D03*
X187353921Y-101518000D03*
X185225921Y-103297000D03*
X184064921Y-105963000D03*
X184368921Y-109333000D03*
X185988921Y-111864000D03*
X188635921Y-113483000D03*
X192078921Y-113513000D03*
X194805921Y-112116000D03*
X196577921Y-109424000D03*
X196807921Y-106000000D03*
X195537921Y-103333000D03*
X193435921Y-101545000D03*
%TD*%
D17*
%TO.C,R18*%
X193690000Y-119750000D03*
D18*
X201310000Y-119750000D03*
%TD*%
D17*
%TO.C,R14*%
X214690000Y-119750000D03*
D18*
X222310000Y-119750000D03*
%TD*%
D19*
%TO.C,Y1*%
X192251500Y-73175000D03*
X192251500Y-78055000D03*
%TD*%
D16*
%TO.C,TBE4*%
X113927361Y-100793000D03*
X110823361Y-101518000D03*
X108695361Y-103297000D03*
X107534361Y-105963000D03*
X107838361Y-109333000D03*
X109458361Y-111864000D03*
X112105361Y-113483000D03*
X115548361Y-113513000D03*
X118275361Y-112116000D03*
X120047361Y-109424000D03*
X120277361Y-106000000D03*
X119007361Y-103333000D03*
X116905361Y-101545000D03*
%TD*%
D20*
%TO.C,C1*%
X151750000Y-69500000D03*
D14*
X151750000Y-67000000D03*
%TD*%
D21*
%TO.C,RV3*%
X81000000Y-72250000D03*
X81000000Y-77250000D03*
X81000000Y-82250000D03*
%TD*%
%TO.C,RV2*%
X81000000Y-88250000D03*
X81000000Y-93250000D03*
X81000000Y-98250000D03*
%TD*%
D17*
%TO.C,R4*%
X126250000Y-94690000D03*
D18*
X126250000Y-87070000D03*
%TD*%
D10*
%TO.C,U4*%
X207382643Y-123840000D03*
D11*
X207382643Y-126380000D03*
X207382643Y-128920000D03*
X207382643Y-131460000D03*
X207382643Y-134000000D03*
X207382643Y-136540000D03*
X207382643Y-139080000D03*
X207382643Y-141620000D03*
X207382643Y-144160000D03*
X207382643Y-146700000D03*
X215002643Y-146700000D03*
X215002643Y-144160000D03*
X215002643Y-141620000D03*
X215002643Y-139080000D03*
X215002643Y-136540000D03*
X215002643Y-134000000D03*
X215002643Y-131460000D03*
X215002643Y-128920000D03*
X215002643Y-126380000D03*
X215002643Y-123840000D03*
%TD*%
D10*
%TO.C,U7*%
X138015282Y-123840000D03*
D11*
X138015282Y-126380000D03*
X138015282Y-128920000D03*
X138015282Y-131460000D03*
X138015282Y-134000000D03*
X138015282Y-136540000D03*
X138015282Y-139080000D03*
X138015282Y-141620000D03*
X138015282Y-144160000D03*
X138015282Y-146700000D03*
X145635282Y-146700000D03*
X145635282Y-144160000D03*
X145635282Y-141620000D03*
X145635282Y-139080000D03*
X145635282Y-136540000D03*
X145635282Y-134000000D03*
X145635282Y-131460000D03*
X145635282Y-128920000D03*
X145635282Y-126380000D03*
X145635282Y-123840000D03*
%TD*%
D16*
%TO.C,TBE5*%
X162560000Y-100793000D03*
X159456000Y-101518000D03*
X157328000Y-103297000D03*
X156167000Y-105963000D03*
X156471000Y-109333000D03*
X158091000Y-111864000D03*
X160738000Y-113483000D03*
X164181000Y-113513000D03*
X166908000Y-112116000D03*
X168680000Y-109424000D03*
X168910000Y-106000000D03*
X167640000Y-103333000D03*
X165538000Y-101545000D03*
%TD*%
%TO.C,TBE1*%
X211192643Y-100793000D03*
X208088643Y-101518000D03*
X205960643Y-103297000D03*
X204799643Y-105963000D03*
X205103643Y-109333000D03*
X206723643Y-111864000D03*
X209370643Y-113483000D03*
X212813643Y-113513000D03*
X215540643Y-112116000D03*
X217312643Y-109424000D03*
X217542643Y-106000000D03*
X216272643Y-103333000D03*
X214170643Y-101545000D03*
%TD*%
D22*
%TO.C,C8*%
X106000000Y-141660000D03*
D23*
X106000000Y-143160000D03*
%TD*%
D24*
%TO.C,NE1*%
X175417643Y-107270000D03*
D25*
X177957643Y-107270000D03*
%TD*%
D26*
%TO.C,Q1*%
X119230000Y-88860000D03*
D27*
X120500000Y-88860000D03*
X121770000Y-88860000D03*
%TD*%
D10*
%TO.C,U9*%
X89382643Y-123840000D03*
D11*
X89382643Y-126380000D03*
X89382643Y-128920000D03*
X89382643Y-131460000D03*
X89382643Y-134000000D03*
X89382643Y-136540000D03*
X89382643Y-139080000D03*
X89382643Y-141620000D03*
X89382643Y-144160000D03*
X89382643Y-146700000D03*
X97002643Y-146700000D03*
X97002643Y-144160000D03*
X97002643Y-141620000D03*
X97002643Y-139080000D03*
X97002643Y-136540000D03*
X97002643Y-134000000D03*
X97002643Y-131460000D03*
X97002643Y-128920000D03*
X97002643Y-126380000D03*
X97002643Y-123840000D03*
%TD*%
D14*
%TO.C,R22*%
X81000000Y-101920000D03*
D15*
X81000000Y-112080000D03*
%TD*%
D22*
%TO.C,C15*%
X210501500Y-71972599D03*
D23*
X210501500Y-70472599D03*
%TD*%
D12*
%TO.C,R1*%
X138750000Y-87250000D03*
D13*
X138750000Y-72010000D03*
%TD*%
D20*
%TO.C,U2*%
X124950000Y-75830000D03*
D15*
X124950000Y-78370000D03*
X124950000Y-80910000D03*
X124950000Y-83450000D03*
X132570000Y-83450000D03*
X132570000Y-80910000D03*
X132570000Y-78370000D03*
X132570000Y-75830000D03*
%TD*%
D14*
%TO.C,C5*%
X123250000Y-94750000D03*
X118250000Y-94750000D03*
%TD*%
%TO.C,R26*%
X81000000Y-114920000D03*
D15*
X81000000Y-125080000D03*
%TD*%
D28*
%TO.C,U1*%
X152500000Y-82040000D03*
D29*
X152500000Y-79500000D03*
X152500000Y-76960000D03*
%TD*%
D22*
%TO.C,C9*%
X134000000Y-141660000D03*
D23*
X134000000Y-143160000D03*
%TD*%
D17*
%TO.C,R15*%
X145190000Y-119750000D03*
D18*
X152810000Y-119750000D03*
%TD*%
D14*
%TO.C,R13*%
X157000000Y-50400000D03*
D15*
X157000000Y-63100000D03*
%TD*%
D14*
%TO.C,R16*%
X178000000Y-114920000D03*
D15*
X178000000Y-125080000D03*
%TD*%
D14*
%TO.C,R9*%
X159000000Y-81100000D03*
D15*
X159000000Y-68400000D03*
%TD*%
D30*
%TO.C,H2*%
X80000000Y-50000000D03*
%TD*%
D22*
%TO.C,C12*%
X203000000Y-141660000D03*
D23*
X203000000Y-143160000D03*
%TD*%
D10*
%TO.C,U8*%
X110117361Y-123840000D03*
D11*
X110117361Y-126380000D03*
X110117361Y-128920000D03*
X110117361Y-131460000D03*
X110117361Y-134000000D03*
X110117361Y-136540000D03*
X110117361Y-139080000D03*
X110117361Y-141620000D03*
X110117361Y-144160000D03*
X110117361Y-146700000D03*
X117737361Y-146700000D03*
X117737361Y-144160000D03*
X117737361Y-141620000D03*
X117737361Y-139080000D03*
X117737361Y-136540000D03*
X117737361Y-134000000D03*
X117737361Y-131460000D03*
X117737361Y-128920000D03*
X117737361Y-126380000D03*
X117737361Y-123840000D03*
%TD*%
D14*
%TO.C,R12*%
X177000000Y-81100000D03*
D15*
X177000000Y-68400000D03*
%TD*%
D14*
%TO.C,R8*%
X181901500Y-85750000D03*
D15*
X194601500Y-85750000D03*
%TD*%
D20*
%TO.C,C6*%
X101750000Y-72750000D03*
D14*
X101750000Y-75250000D03*
%TD*%
D12*
%TO.C,R23*%
X102350000Y-81000000D03*
D13*
X89650000Y-81000000D03*
%TD*%
D14*
%TO.C,C16*%
X164500000Y-85750000D03*
X159500000Y-85750000D03*
%TD*%
D31*
%TO.C,SW1*%
X199000000Y-90750000D03*
D32*
X205500000Y-90750000D03*
X199000000Y-95250000D03*
X205500000Y-95250000D03*
%TD*%
D14*
%TO.C,R17*%
X129500000Y-114670000D03*
D15*
X129500000Y-124830000D03*
%TD*%
D14*
%TO.C,C14*%
X186051500Y-77675000D03*
X186051500Y-80175000D03*
%TD*%
D17*
%TO.C,R19*%
X117190000Y-119750000D03*
D18*
X124810000Y-119750000D03*
%TD*%
D23*
%TO.C,C7*%
X85500000Y-143500000D03*
D22*
X85500000Y-142000000D03*
%TD*%
D20*
%TO.C,C2*%
X152250000Y-88067621D03*
D14*
X152250000Y-90567621D03*
%TD*%
D30*
%TO.C,H1*%
X220750000Y-50000000D03*
%TD*%
D22*
%TO.C,C11*%
X182000000Y-141660000D03*
D23*
X182000000Y-143160000D03*
%TD*%
D14*
%TO.C,R11*%
X165000000Y-68400000D03*
D15*
X165000000Y-81100000D03*
%TD*%
D20*
%TO.C,U10*%
X198451500Y-71125000D03*
D15*
X198451500Y-73665000D03*
X198451500Y-76205000D03*
X198451500Y-78745000D03*
X198451500Y-81285000D03*
X198451500Y-83825000D03*
X198451500Y-86365000D03*
X206071500Y-86365000D03*
X206071500Y-83825000D03*
X206071500Y-81285000D03*
X206071500Y-78745000D03*
X206071500Y-76205000D03*
X206071500Y-73665000D03*
X206071500Y-71125000D03*
%TD*%
D14*
%TO.C,R10*%
X171000000Y-81100000D03*
D15*
X171000000Y-68400000D03*
%TD*%
D22*
%TO.C,C10*%
X155000000Y-141620000D03*
D23*
X155000000Y-143120000D03*
%TD*%
D21*
%TO.C,S1*%
X165500000Y-49500000D03*
X170500000Y-49500000D03*
D33*
X173700000Y-56500000D03*
X162300000Y-56500000D03*
D21*
X165500000Y-64000000D03*
X170500000Y-64000000D03*
X168000000Y-64000000D03*
%TD*%
D12*
%TO.C,R2*%
X145750000Y-87250000D03*
D13*
X145750000Y-72010000D03*
%TD*%
D20*
%TO.C,C4*%
X127097349Y-67750000D03*
D14*
X130597349Y-67750000D03*
%TD*%
D21*
%TO.C,L1*%
X122250000Y-59250000D03*
X103250000Y-59250000D03*
%TD*%
D34*
%TO.C,U3*%
X109670000Y-84695000D03*
D35*
X112210000Y-84695000D03*
X114750000Y-84695000D03*
%TD*%
D16*
%TO.C,TBE2*%
X141825282Y-100793000D03*
X138721282Y-101518000D03*
X136593282Y-103297000D03*
X135432282Y-105963000D03*
X135736282Y-109333000D03*
X137356282Y-111864000D03*
X140003282Y-113483000D03*
X143446282Y-113513000D03*
X146173282Y-112116000D03*
X147945282Y-109424000D03*
X148175282Y-106000000D03*
X146905282Y-103333000D03*
X144803282Y-101545000D03*
%TD*%
D20*
%TO.C,D1*%
X112940000Y-77750000D03*
D15*
X120560000Y-77750000D03*
%TD*%
D14*
%TO.C,C17*%
X171500000Y-85750000D03*
X176500000Y-85750000D03*
%TD*%
%TO.C,C3*%
X120250000Y-81430000D03*
X120250000Y-83930000D03*
%TD*%
D30*
%TO.C,H4*%
X80000000Y-147500000D03*
%TD*%
D14*
%TO.C,R7*%
X137670000Y-91750000D03*
D15*
X147830000Y-91750000D03*
%TD*%
D20*
%TO.C,D2*%
X108250000Y-71940000D03*
D15*
X108250000Y-79560000D03*
%TD*%
D14*
%TO.C,R3*%
X121830000Y-73150000D03*
D15*
X111670000Y-73150000D03*
%TD*%
D14*
%TO.C,C13*%
X186051500Y-73575000D03*
X186051500Y-71075000D03*
%TD*%
D21*
%TO.C,RV1*%
X81000000Y-56250000D03*
X81000000Y-61250000D03*
X81000000Y-66250000D03*
%TD*%
D36*
%TO.C,J1*%
X142250000Y-62250000D03*
X142250000Y-56250000D03*
D37*
X137550000Y-59250000D03*
%TD*%
D12*
%TO.C,R27*%
X104620000Y-87000000D03*
D13*
X89380000Y-87000000D03*
%TD*%
D30*
%TO.C,H3*%
X221250000Y-147500000D03*
%TD*%
D17*
%TO.C,R20*%
X165940000Y-119750000D03*
D18*
X173560000Y-119750000D03*
%TD*%
D17*
%TO.C,R6*%
X129750000Y-94690000D03*
D18*
X129750000Y-87070000D03*
%TD*%
D22*
%TO.C,C18*%
X210501500Y-78750000D03*
D23*
X210501500Y-77250000D03*
%TD*%
D17*
%TO.C,R21*%
X96690000Y-119750000D03*
D18*
X104310000Y-119750000D03*
%TD*%
D14*
%TO.C,R5*%
X134250000Y-87170000D03*
D15*
X134250000Y-97330000D03*
%TD*%
D16*
%TO.C,TBE6*%
X93192643Y-100793000D03*
X90088643Y-101518000D03*
X87960643Y-103297000D03*
X86799643Y-105963000D03*
X87103643Y-109333000D03*
X88723643Y-111864000D03*
X91370643Y-113483000D03*
X94813643Y-113513000D03*
X97540643Y-112116000D03*
X99312643Y-109424000D03*
X99542643Y-106000000D03*
X98272643Y-103333000D03*
X96170643Y-101545000D03*
%TD*%
D24*
%TO.C,NE2*%
X126917643Y-107270000D03*
D25*
X129457643Y-107270000D03*
%TD*%
M02*
