M48
; DRILL file {KiCad (6.0.4)} date Mon Aug 22 18:12:24 2022
; FORMAT={-:-/ absolute / inch / decimal}
; #@! TF.CreationDate,2022-08-22T18:12:24-05:00
; #@! TF.GenerationSoftware,Kicad,Pcbnew,(6.0.4)
; #@! TF.FileFunction,Plated,1,2,PTH
FMAT,2
INCH
; #@! TA.AperFunction,Plated,PTH,ViaDrill
T1C0.0157
; #@! TA.AperFunction,Plated,PTH,ComponentDrill
T2C0.0236
; #@! TA.AperFunction,Plated,PTH,ComponentDrill
T3C0.0276
; #@! TA.AperFunction,Plated,PTH,ViaDrill
T4C0.0295
; #@! TA.AperFunction,Plated,PTH,ComponentDrill
T5C0.0295
; #@! TA.AperFunction,Plated,PTH,ComponentDrill
T6C0.0315
; #@! TA.AperFunction,Plated,PTH,ComponentDrill
T7C0.0354
; #@! TA.AperFunction,Plated,PTH,ComponentDrill
T8C0.0390
; #@! TA.AperFunction,Plated,PTH,ComponentDrill
T9C0.0394
; #@! TA.AperFunction,Plated,PTH,ComponentDrill
T10C0.0433
; #@! TA.AperFunction,Plated,PTH,ComponentDrill
T11C0.0440
; #@! TA.AperFunction,Plated,PTH,ComponentDrill
T12C0.0472
; #@! TA.AperFunction,Plated,PTH,ComponentDrill
T13C0.0488
; #@! TA.AperFunction,Plated,PTH,ComponentDrill
T14C0.0492
; #@! TA.AperFunction,Plated,PTH,ComponentDrill
T15C0.0709
%
G90
G05
T1
X3.0709Y-2.9528
X3.2677Y-3.8287
X3.3366Y-3.9567
X3.3366Y-4.065
X3.3957Y-4.6358
X3.3957Y-4.9803
X3.3957Y-5.2362
X3.4744Y-4.2323
X3.5433Y-4.0945
X3.5433Y-4.1437
X3.5433Y-4.3307
X3.6614Y-4.1043
X3.6614Y-5.2362
X3.6614Y-5.4331
X3.6614Y-5.5512
X3.6614Y-5.7087
X3.6614Y-5.8268
X3.6713Y-4.2224
X3.7008Y-5.1181
X3.7402Y-2.0669
X3.7402Y-2.2638
X3.7402Y-2.4606
X3.7402Y-2.6575
X3.7402Y-2.8543
X3.7402Y-3.0512
X3.7402Y-3.248
X3.7402Y-3.4449
X3.7402Y-3.6417
X3.7402Y-3.8386
X3.7795Y-4.0945
X3.7795Y-4.3307
X3.937Y-2.0669
X3.937Y-3.8386
X3.9469Y-4.9803
X4.0551Y-5.1181
X4.0551Y-5.2362
X4.0551Y-5.3937
X4.0551Y-5.4724
X4.1339Y-2.0669
X4.1732Y-4.3209
X4.1732Y-4.439
X4.1732Y-4.5965
X4.1831Y-4.6752
X4.1831Y-4.9705
X4.1936Y-4.7251
X4.2323Y-3.8386
X4.3307Y-2.0669
X4.3504Y-4.5177
X4.3678Y-4.2232
X4.3701Y-4.3307
X4.3898Y-4.6161
X4.4094Y-4.0945
X4.4291Y-3.8386
X4.4587Y-4.1634
X4.4783Y-4.4291
X4.4859Y-4.2232
X4.4882Y-5.4724
X4.4882Y-5.5906
X4.4882Y-5.6693
X4.5276Y-2.0669
X4.5276Y-5.1969
X4.5669Y-4.0945
X4.5669Y-4.3307
X4.5669Y-4.5965
X4.5768Y-4.6358
X4.5965Y-4.2832
X4.626Y-3.8386
X4.7244Y-2.0669
X4.8031Y-5.1969
X4.8031Y-5.3937
X4.8228Y-3.8386
X4.9213Y-2.0669
X5.0197Y-3.8386
X5.1181Y-2.0669
X5.1181Y-5.1969
X5.1181Y-5.3937
X5.315Y-2.0669
X5.4134Y-3.8386
X5.4603Y-4.2232
X5.4724Y-4.0945
X5.4724Y-4.3701
X5.5118Y-2.0669
X5.5118Y-5.4724
X5.561Y-4.1634
X5.5785Y-4.2232
X5.5906Y-5.5906
X5.6102Y-3.8386
X5.6201Y-4.5669
X5.6201Y-4.626
X5.6201Y-4.6654
X5.6299Y-4.1043
X5.6299Y-5.315
X5.6299Y-5.4331
X5.6693Y-4.0945
X5.6693Y-4.3701
X5.7087Y-2.0669
X5.7972Y-5.128
X5.7972Y-5.2264
X5.8071Y-3.8386
X5.876Y-5.0984
X5.9055Y-2.0669
X5.9055Y-5.1969
X5.9055Y-5.3937
X5.9843Y-4.2913
X6.0039Y-3.8386
X6.0236Y-4.9508
X6.064Y-4.3898
X6.1024Y-2.0669
X6.1024Y-5.3937
X6.1407Y-5.315
X6.1417Y-4.685
X6.1417Y-4.9705
X6.1417Y-5.4331
X6.2008Y-2.1654
X6.2008Y-2.3622
X6.2008Y-3.0512
X6.2008Y-3.248
X6.2008Y-3.4449
X6.2008Y-3.6417
X6.2008Y-3.8386
X6.2402Y-4.498
X6.2773Y-4.2232
X6.2992Y-4.0945
X6.2992Y-4.3701
X6.3002Y-4.6358
X6.3681Y-4.1634
X6.378Y-5.4724
X6.3954Y-4.2232
X6.3976Y-4.5079
X6.4567Y-5.1969
X6.4567Y-5.315
X6.4665Y-4.124
X6.4961Y-4.0945
X6.4961Y-4.3701
X6.6929Y-5.1969
X6.6929Y-5.4331
X6.7028Y-4.3209
X7.126Y-5.1969
X7.126Y-5.4331
X7.3698Y-4.2232
X7.4016Y-4.0945
X7.4016Y-4.3701
X7.4803Y-4.1634
X7.4803Y-5.4724
X7.4803Y-5.5906
X7.4803Y-5.6693
X7.4977Y-4.2232
X7.5197Y-5.315
X7.5886Y-4.1515
X7.5984Y-4.0945
X7.5984Y-4.3701
X7.7264Y-5.0787
X7.7264Y-5.1575
X7.7559Y-5.1969
X7.7559Y-5.4331
X7.8346Y-4.1831
X7.8839Y-4.3307
X7.9331Y-4.1831
X7.9331Y-4.3799
X8.0217Y-4.1142
X8.0315Y-5.4331
X8.1268Y-4.626
X8.189Y-4.5669
X8.1966Y-4.2232
X8.2283Y-3.622
X8.2283Y-3.8189
X8.2283Y-4.0551
X8.2972Y-4.1634
X8.3071Y-4.3701
X8.3071Y-5.2264
X8.3071Y-5.4724
X8.3147Y-4.2232
X8.3465Y-5.0984
X8.376Y-4.8524
X8.376Y-4.9705
X8.376Y-5.2953
X8.3858Y-5.1969
X8.4252Y-4.2913
X8.435Y-4.6063
X8.4449Y-4.1634
X8.4646Y-3.622
X8.4646Y-3.8189
X8.5335Y-5.2854
X8.5335Y-5.4823
X8.563Y-4.7047
X8.6024Y-5.5709
X8.6319Y-4.8524
X8.6319Y-5.128
X8.6319Y-5.4134
T2
X3.3661Y-5.5906
X3.3661Y-5.6496
X4.1732Y-5.5772
X4.1732Y-5.6362
X5.2756Y-5.5772
X5.2756Y-5.6362
X6.1024Y-5.5756
X6.1024Y-5.6346
X7.1654Y-5.5772
X7.1654Y-5.6362
X7.9921Y-5.5772
X7.9921Y-5.6362
X8.2875Y-2.7745
X8.2875Y-2.8336
X8.2875Y-3.0413
X8.2875Y-3.1004
T3
X3.8067Y-4.7146
X4.1067Y-4.7146
X4.6138Y-4.7146
X4.9138Y-4.7146
X4.9705Y-3.428
X4.9705Y-3.728
X5.1083Y-3.428
X5.1083Y-3.728
X5.7161Y-4.7146
X6.0161Y-4.7146
X6.5331Y-4.7146
X6.8331Y-4.7146
X7.6256Y-4.7146
X7.9256Y-4.7146
X8.4524Y-4.7146
X8.7524Y-4.7146
T4
X4.1339Y-4.1437
T5
X4.6941Y-3.4984
X4.7441Y-3.4984
X4.7941Y-3.4984
T6
X3.189Y-4.0126
X3.189Y-4.4126
X3.189Y-4.5244
X3.189Y-4.9244
X3.189Y-5.0394
X3.189Y-5.4394
X4.0059Y-2.8642
X4.0059Y-2.9626
X4.2618Y-2.8323
X4.2618Y-3.1323
X4.3965Y-2.8799
X4.4465Y-3.061
X4.6555Y-3.7303
X4.7343Y-3.2059
X4.7343Y-3.3043
X4.7465Y-3.061
X4.7965Y-2.8799
X4.8524Y-3.7303
X4.9193Y-2.9854
X4.9193Y-3.0854
X4.9193Y-3.1854
X4.9193Y-3.2854
X5.0038Y-2.6673
X5.0984Y-4.5146
X5.0984Y-4.9146
X5.1416Y-2.6673
X5.2193Y-2.9854
X5.2193Y-3.0854
X5.2193Y-3.1854
X5.2193Y-3.2854
X5.2854Y-3.4319
X5.2854Y-3.8319
X5.4201Y-3.6122
X5.8201Y-3.6122
X5.9744Y-2.6378
X5.9744Y-2.7362
X5.9941Y-3.4672
X5.9941Y-3.5657
X6.1811Y-1.9843
X6.1811Y-2.4843
X6.2598Y-2.6929
X6.2598Y-3.1929
X6.2795Y-3.376
X6.4764Y-3.376
X6.4961Y-2.6929
X6.4961Y-3.1929
X6.7323Y-2.6929
X6.7323Y-3.1929
X6.752Y-3.376
X6.9488Y-3.376
X6.9685Y-2.6929
X6.9685Y-3.1929
X7.0079Y-4.5244
X7.0079Y-4.9244
X7.1615Y-3.376
X7.3249Y-2.7982
X7.3249Y-2.8967
X7.3249Y-3.0581
X7.3249Y-3.1565
X7.569Y-2.8809
X7.569Y-3.073
X7.6615Y-3.376
X7.8131Y-2.8002
X7.8131Y-2.9002
X7.8131Y-3.0002
X7.8131Y-3.1002
X7.8131Y-3.2002
X7.8131Y-3.3002
X7.8131Y-3.4002
X8.1131Y-2.8002
X8.1131Y-2.9002
X8.1131Y-3.0002
X8.1131Y-3.1002
X8.1131Y-3.2002
X8.1131Y-3.3002
X8.1131Y-3.4002
T7
X3.4173Y-4.1718
X3.4293Y-4.3044
X3.463Y-4.0668
X3.4931Y-4.4041
X3.5468Y-3.9968
X3.5973Y-4.4678
X3.669Y-3.9682
X3.7328Y-4.469
X3.7862Y-3.9978
X3.8402Y-4.414
X3.869Y-4.0682
X3.9099Y-4.308
X3.919Y-4.1732
X4.2336Y-4.1718
X4.2456Y-4.3044
X4.2793Y-4.0668
X4.3094Y-4.4041
X4.3631Y-3.9968
X4.4136Y-4.4678
X4.4853Y-3.9682
X4.5491Y-4.469
X4.6026Y-3.9978
X4.6565Y-4.414
X4.6853Y-4.0682
X4.7263Y-4.308
X4.7353Y-4.1732
X4.9968Y-4.2232
X5.0968Y-4.2232
X5.332Y-4.1718
X5.3439Y-4.3044
X5.3777Y-4.0668
X5.4077Y-4.4041
X5.4615Y-3.9968
X5.5119Y-4.4678
X5.5837Y-3.9682
X5.6475Y-4.469
X5.7009Y-3.9978
X5.7549Y-4.414
X5.7837Y-4.0682
X5.8246Y-4.308
X5.8337Y-4.1732
X6.1483Y-4.1718
X6.1603Y-4.3044
X6.194Y-4.0668
X6.2241Y-4.4041
X6.2778Y-3.9968
X6.3283Y-4.4678
X6.4Y-3.9682
X6.4638Y-4.469
X6.5172Y-3.9978
X6.5712Y-4.414
X6.6Y-4.0682
X6.6409Y-4.308
X6.65Y-4.1732
X6.9062Y-4.2232
X7.0062Y-4.2232
X7.2467Y-4.1718
X7.2586Y-4.3044
X7.2924Y-4.0668
X7.3224Y-4.4041
X7.3761Y-3.9968
X7.4266Y-4.4678
X7.4983Y-3.9682
X7.5622Y-4.469
X7.6156Y-3.9978
X7.6695Y-4.414
X7.6983Y-4.0682
X7.7393Y-4.308
X7.7483Y-4.1732
X8.063Y-4.1718
X8.0749Y-4.3044
X8.1087Y-4.0668
X8.1387Y-4.4041
X8.1925Y-3.9968
X8.2429Y-4.4678
X8.3147Y-3.9682
X8.3785Y-4.469
X8.4319Y-3.9978
X8.4859Y-4.414
X8.5147Y-4.0682
X8.5556Y-4.308
X8.5647Y-4.1732
T8
X7.8346Y-3.5728
X7.8346Y-3.75
X8.0906Y-3.5728
X8.0906Y-3.75
T9
X4.065Y-2.3327
X4.813Y-2.3327
X6.5157Y-1.9488
X6.5157Y-2.5197
X6.6142Y-2.5197
X6.7126Y-1.9488
X6.7126Y-2.5197
T10
X4.3177Y-3.3344
X4.4177Y-3.3344
X4.5177Y-3.3344
T11
X3.519Y-4.8756
X3.519Y-4.9756
X3.519Y-5.0756
X3.519Y-5.1756
X3.519Y-5.2756
X3.519Y-5.3756
X3.519Y-5.4756
X3.519Y-5.5756
X3.519Y-5.6756
X3.519Y-5.7756
X3.819Y-4.8756
X3.819Y-4.9756
X3.819Y-5.0756
X3.819Y-5.1756
X3.819Y-5.2756
X3.819Y-5.3756
X3.819Y-5.4756
X3.819Y-5.5756
X3.819Y-5.6756
X3.819Y-5.7756
X4.3353Y-4.8756
X4.3353Y-4.9756
X4.3353Y-5.0756
X4.3353Y-5.1756
X4.3353Y-5.2756
X4.3353Y-5.3756
X4.3353Y-5.4756
X4.3353Y-5.5756
X4.3353Y-5.6756
X4.3353Y-5.7756
X4.6353Y-4.8756
X4.6353Y-4.9756
X4.6353Y-5.0756
X4.6353Y-5.1756
X4.6353Y-5.2756
X4.6353Y-5.3756
X4.6353Y-5.4756
X4.6353Y-5.5756
X4.6353Y-5.6756
X4.6353Y-5.7756
X5.4337Y-4.8756
X5.4337Y-4.9756
X5.4337Y-5.0756
X5.4337Y-5.1756
X5.4337Y-5.2756
X5.4337Y-5.3756
X5.4337Y-5.4756
X5.4337Y-5.5756
X5.4337Y-5.6756
X5.4337Y-5.7756
X5.7337Y-4.8756
X5.7337Y-4.9756
X5.7337Y-5.0756
X5.7337Y-5.1756
X5.7337Y-5.2756
X5.7337Y-5.3756
X5.7337Y-5.4756
X5.7337Y-5.5756
X5.7337Y-5.6756
X5.7337Y-5.7756
X6.25Y-4.8756
X6.25Y-4.9756
X6.25Y-5.0756
X6.25Y-5.1756
X6.25Y-5.2756
X6.25Y-5.3756
X6.25Y-5.4756
X6.25Y-5.5756
X6.25Y-5.6756
X6.25Y-5.7756
X6.55Y-4.8756
X6.55Y-4.9756
X6.55Y-5.0756
X6.55Y-5.1756
X6.55Y-5.2756
X6.55Y-5.3756
X6.55Y-5.4756
X6.55Y-5.5756
X6.55Y-5.6756
X6.55Y-5.7756
X7.3379Y-4.8756
X7.3379Y-4.9756
X7.3379Y-5.0756
X7.3379Y-5.1756
X7.3379Y-5.2756
X7.3379Y-5.3756
X7.3379Y-5.4756
X7.3379Y-5.5756
X7.3379Y-5.6756
X7.3379Y-5.7756
X7.6379Y-4.8756
X7.6379Y-4.9756
X7.6379Y-5.0756
X7.6379Y-5.1756
X7.6379Y-5.2756
X7.6379Y-5.3756
X7.6379Y-5.4756
X7.6379Y-5.5756
X7.6379Y-5.6756
X7.6379Y-5.7756
X8.1647Y-4.8756
X8.1647Y-4.9756
X8.1647Y-5.0756
X8.1647Y-5.1756
X8.1647Y-5.2756
X8.1647Y-5.3756
X8.1647Y-5.4756
X8.1647Y-5.5756
X8.1647Y-5.6756
X8.1647Y-5.7756
X8.4647Y-4.8756
X8.4647Y-4.9756
X8.4647Y-5.0756
X8.4647Y-5.1756
X8.4647Y-5.2756
X8.4647Y-5.3756
X8.4647Y-5.4756
X8.4647Y-5.5756
X8.4647Y-5.6756
X8.4647Y-5.7756
T12
X3.5189Y-3.4252
X3.5189Y-3.7008
X3.5295Y-3.189
X4.0295Y-3.189
X4.1189Y-3.4252
X4.1189Y-3.7008
X5.4626Y-2.835
X5.4626Y-3.435
X5.7382Y-2.835
X5.7382Y-3.435
T13
X6.0039Y-3.0299
X6.0039Y-3.1299
X6.0039Y-3.2299
T14
X3.189Y-2.2146
X3.189Y-2.4114
X3.189Y-2.6083
X3.189Y-2.8445
X3.189Y-3.0413
X3.189Y-3.2382
X3.189Y-3.4744
X3.189Y-3.6713
X3.189Y-3.8681
T9
G00X5.4154Y-2.2835
M15
G01X5.4154Y-2.3819
M16
G05
G00X5.5512Y-2.2146
M15
G01X5.6496Y-2.2146
M16
G05
G00X5.5512Y-2.4508
M15
G01X5.6496Y-2.4508
M16
G05
T15
G00X6.3898Y-2.2087
M15
G01X6.3898Y-2.2402
M16
G05
G00X6.8386Y-2.2087
M15
G01X6.8386Y-2.2402
M16
G05
T0
M30
